<svg preserveAspectRatio="none" width="100%" height="100%" overflow="visible" style="display: block;" viewBox="0 0 20 24.0002" fill="none" xmlns="http://www.w3.org/2000/svg">
<g id="Frame">
<path id="Shape" d="M14.8486 5.61816C16.4387 5.61816 18.1235 6.511 19.3223 8.05176C15.392 10.273 16.0287 16.0603 20 17.6084C19.454 18.8558 19.1916 19.4137 18.4883 20.5186C17.5071 22.0609 16.1232 23.9808 14.4072 23.9951C12.8841 24.0121 12.4907 22.9727 10.4229 22.9854C8.35532 22.9967 7.92418 24.0155 6.39844 24C4.68374 23.9845 3.37282 22.2514 2.3916 20.709C-0.353493 16.3995 -0.642752 11.3406 1.0498 8.64941C2.25408 6.7387 4.15395 5.62112 5.93848 5.62109C7.75449 5.62109 8.89737 6.64844 10.4014 6.64844C11.8601 6.64838 12.7482 5.61826 14.8486 5.61816ZM14.3887 0C14.5981 1.45774 14.0195 2.88608 13.2559 3.89648C12.4388 4.98017 11.0303 5.81816 9.66602 5.77441C9.41704 4.3789 10.0552 2.94122 10.8311 1.97461C11.6822 0.907884 13.1407 0.08906 14.3887 0Z" fill="var(--fill-0, white)"/>
</g>
</svg>
