<svg preserveAspectRatio="none" width="100%" height="100%" overflow="visible" style="display: block;" viewBox="0 0 24 24" fill="none" xmlns="http://www.w3.org/2000/svg">
<g id="Frame">
<path id="Shape" d="M12.2449 4.64C14.5442 4.64 16.0952 5.61334 16.9796 6.42667L20.4354 3.12C18.3129 1.18667 15.551 0 12.2449 0C7.45576 0 3.31971 2.69334 1.3061 6.61334L5.26529 9.62667C6.25848 6.73334 9.00678 4.64 12.2449 4.64V4.64Z" fill="var(--fill-0, white)"/>
<path id="Shape_2" d="M24 12.2666C24 11.28 23.9184 10.56 23.7415 9.81331H12.2449V14.2666H18.9932C18.8571 15.3733 18.1224 17.04 16.4898 18.16L20.3537 21.0933C22.6667 19 24 15.92 24 12.2666V12.2666Z" fill="var(--fill-0, white)"/>
<path id="Shape_3" d="M5.27891 14.3734C5.02041 13.6267 4.87075 12.8267 4.87075 12C4.87075 11.1734 5.02041 10.3734 5.26531 9.62669L1.30612 6.61336C0.476191 8.24003 0 10.0667 0 12C0 13.9334 0.476191 15.76 1.30612 17.3867L5.27891 14.3734V14.3734Z" fill="var(--fill-0, white)"/>
<path id="Shape_4" d="M12.2449 24C15.551 24 18.3265 22.9333 20.3537 21.0933L16.4898 18.16C15.4558 18.8667 14.068 19.36 12.2449 19.36C9.00678 19.36 6.25848 17.2667 5.27889 14.3733L1.3197 17.3867C3.33331 21.3067 7.45576 24 12.2449 24V24Z" fill="var(--fill-0, white)"/>
</g>
</svg>
