<svg preserveAspectRatio="none" width="100%" height="100%" overflow="visible" style="display: block;" viewBox="0 0 15 12" fill="none" xmlns="http://www.w3.org/2000/svg">
<g id="Union">
<path d="M2 7L2 0H0V7C0 9.76142 2.23858 12 5 12C7.76142 12 10 9.76142 10 7L10 0H8L8 7C8 8.65685 6.65685 10 5 10C3.34315 10 2 8.65685 2 7Z" fill="var(--fill-0, #4F507F)"/>
<path d="M2 7L2 0H0V7C0 9.76142 2.23858 12 5 12C7.76142 12 10 9.76142 10 7L10 0H8L8 7C8 8.65685 6.65685 10 5 10C3.34315 10 2 8.65685 2 7Z" fill="var(--fill-1, white)" fill-opacity="0.2"/>
<path d="M2 7L2 0H0V7C0 9.76142 2.23858 12 5 12C7.76142 12 10 9.76142 10 7L10 0H8L8 7C8 8.65685 6.65685 10 5 10C3.34315 10 2 8.65685 2 7Z" fill="var(--fill-2, white)" fill-opacity="0.1" style="mix-blend-mode:plus-lighter"/>
<path d="M13 0V12H15V0H13Z" fill="var(--fill-0, #4F507F)"/>
<path d="M13 0V12H15V0H13Z" fill="var(--fill-1, white)" fill-opacity="0.2"/>
<path d="M13 0V12H15V0H13Z" fill="var(--fill-2, white)" fill-opacity="0.1" style="mix-blend-mode:plus-lighter"/>
</g>
</svg>
