<svg preserveAspectRatio="none" width="100%" height="100%" overflow="visible" style="display: block;" viewBox="0 0 53 12" fill="none" xmlns="http://www.w3.org/2000/svg">
<g id="Union">
<path d="M7.75145 11.0976C6.91908 11.7073 5.80058 12 4.39595 12C3.53757 12 2.75723 11.878 2.05491 11.6585C1.3526 11.439 0.650289 11.1463 0 10.7561L0.806358 9.02439C1.45665 9.43902 2.05491 9.70732 2.62717 9.87805C3.19942 10.0488 3.77168 10.1463 4.31792 10.1463C5.12428 10.1463 5.72254 10.0244 6.16474 9.7561C6.58093 9.48781 6.78902 9.12195 6.78902 8.63415C6.78902 8.09756 6.55491 7.68293 6.06069 7.41463C5.56647 7.14634 4.9422 6.87805 4.18786 6.60976C3.06936 6.21951 2.18497 5.78049 1.53468 5.29268C0.858382 4.80488 0.520231 4.09756 0.49422 3.17073C0.468208 2.17073 0.858382 1.39024 1.66474 0.829268C2.4711 0.268293 3.51156 0 4.81214 0C5.46243 0 6.08671 0.0731705 6.71098 0.243902C7.33526 0.414634 7.93353 0.658536 8.47977 1L7.67341 2.65854C7.17919 2.39024 6.71098 2.19512 6.26879 2.04878C5.80058 1.90244 5.30636 1.82927 4.81214 1.82927C4.16185 1.82927 3.64162 1.92683 3.25145 2.14634C2.86127 2.36585 2.67919 2.70732 2.67919 3.14634C2.67919 3.63415 2.93931 4 3.43353 4.2439C3.92775 4.4878 4.57803 4.7561 5.33237 5.04878C6.45087 5.43902 7.33526 5.87805 8.01156 6.39024C8.66185 6.90244 9 7.60976 9 8.56098C9 9.65854 8.58382 10.4878 7.75145 11.0976Z" fill="var(--fill-0, #4F507F)"/>
<path d="M20 5V12H22V5C22 2.23858 19.7614 0 17 0C14.2386 0 12 2.23858 12 5V12H14V5C14 3.34315 15.3431 2 17 2C18.6569 2 20 3.34315 20 5Z" fill="var(--fill-0, #4F507F)"/>
<path fill-rule="evenodd" clip-rule="evenodd" d="M37 6C37 9.31371 34.3137 12 31 12C27.6863 12 25 9.31371 25 6C25 2.68629 27.6863 0 31 0C34.3137 0 37 2.68629 37 6ZM35 6C35 8.20914 33.2091 10 31 10C28.7909 10 27 8.20914 27 6C27 3.79086 28.7909 2 31 2C33.2091 2 35 3.79086 35 6Z" fill="var(--fill-0, #4F507F)"/>
<path d="M39 0L40.8849 10.3516C41.2759 12.4988 44.143 12.5684 44.6258 10.4424L45.7431 4.54182C45.7842 4.32506 46.0747 4.32948 46.11 4.5474L47.0502 10.3547C47.4675 12.4986 50.339 12.5261 50.7927 10.3906L53 0H51.0588L49.1166 9.9604C49.0748 10.1745 48.7885 10.1717 48.7505 9.9568L46.9863 0H45.0323L42.9663 9.9897C42.9221 10.2031 42.6362 10.1968 42.6003 9.98168L40.932 0H39Z" fill="var(--fill-0, #4F507F)"/>
</g>
</svg>
