<svg preserveAspectRatio="none" width="100%" height="100%" overflow="visible" style="display: block;" viewBox="0 0 28 28" fill="none" xmlns="http://www.w3.org/2000/svg">
<g id="Frame">
<path id="Rectangle 40" d="M23.8 9.8C26.1196 9.8 28 11.6804 28 14C28 16.3196 26.1196 18.2 23.8 18.2L4.2 18.2C1.8804 18.2 -1.01393e-07 16.3196 0 14C1.01393e-07 11.6804 1.8804 9.8 4.2 9.8L23.8 9.8Z" fill="var(--fill-0, #4C98FD)"/>
<g id="Rectangle 39">
<path d="M9.80005 4.2C9.80005 1.8804 11.6805 0 14 0C16.3196 0 18.2 1.8804 18.2 4.2V23.8C18.2 26.1196 16.3196 28 14 28C11.6805 28 9.80005 26.1196 9.80005 23.8V4.2Z" fill="var(--fill-0, #4C98FD)"/>
<path d="M9.80005 4.2C9.80005 1.8804 11.6805 0 14 0C16.3196 0 18.2 1.8804 18.2 4.2V23.8C18.2 26.1196 16.3196 28 14 28C11.6805 28 9.80005 26.1196 9.80005 23.8V4.2Z" fill="var(--fill-1, white)" fill-opacity="0.4" style="mix-blend-mode:screen"/>
</g>
<g id="Rectangle 42">
<path d="M23.9002 17.9603C25.5404 19.6005 25.5404 22.2599 23.9002 23.9002C22.2599 25.5404 19.6005 25.5404 17.9603 23.9002L4.10055 10.0404C2.4603 8.40018 2.4603 5.7408 4.10055 4.10054C5.74081 2.46029 8.40018 2.46029 10.0404 4.10054L23.9002 17.9603Z" fill="var(--fill-0, #4C98FD)"/>
<path d="M23.9002 17.9603C25.5404 19.6005 25.5404 22.2599 23.9002 23.9002C22.2599 25.5404 19.6005 25.5404 17.9603 23.9002L4.10055 10.0404C2.4603 8.40018 2.4603 5.7408 4.10055 4.10054C5.74081 2.46029 8.40018 2.46029 10.0404 4.10054L23.9002 17.9603Z" fill="var(--fill-1, white)" fill-opacity="0.2" style="mix-blend-mode:soft-light"/>
</g>
<g id="Rectangle 41">
<path d="M17.9603 4.10054C19.6005 2.46029 22.2599 2.46029 23.9002 4.10054C25.5404 5.7408 25.5404 8.40018 23.9002 10.0404L10.0404 23.9002C8.40018 25.5404 5.74081 25.5404 4.10055 23.9002C2.4603 22.2599 2.4603 19.6005 4.10055 17.9603L17.9603 4.10054Z" fill="var(--fill-0, #4C98FD)"/>
<path d="M17.9603 4.10054C19.6005 2.46029 22.2599 2.46029 23.9002 4.10054C25.5404 5.7408 25.5404 8.40018 23.9002 10.0404L10.0404 23.9002C8.40018 25.5404 5.74081 25.5404 4.10055 23.9002C2.4603 22.2599 2.4603 19.6005 4.10055 17.9603L17.9603 4.10054Z" fill="var(--fill-1, white)" fill-opacity="0.3" style="mix-blend-mode:overlay"/>
</g>
<path id="Union" fill-rule="evenodd" clip-rule="evenodd" d="M14 4.2C13.6907 4.2 13.44 4.45072 13.44 4.76V12.1073C13.44 12.2769 13.44 12.3617 13.4064 12.401C13.3773 12.435 13.3336 12.4531 13.289 12.4496C13.2375 12.4456 13.1775 12.3856 13.0576 12.2656L7.86227 7.07036C7.64358 6.85166 7.289 6.85166 7.07031 7.07036C6.85162 7.28905 6.85162 7.64362 7.07031 7.86232L12.2656 13.0576C12.3855 13.1776 12.4455 13.2375 12.4496 13.289C12.4531 13.3337 12.435 13.3774 12.4009 13.4065C12.3617 13.44 12.2768 13.44 12.1072 13.44H4.75995C4.45067 13.44 4.19995 13.6907 4.19995 14C4.19995 14.3093 4.45067 14.56 4.75995 14.56H12.1072C12.2768 14.56 12.3617 14.56 12.4009 14.5935C12.435 14.6226 12.4531 14.6663 12.4496 14.711C12.4455 14.7625 12.3856 14.8224 12.2656 14.9424L7.07031 20.1377C6.85161 20.3564 6.85161 20.711 7.07031 20.9296C7.289 21.1483 7.64357 21.1483 7.86227 20.9296L13.0576 15.7344C13.1775 15.6144 13.2375 15.5544 13.289 15.5504C13.3336 15.5469 13.3773 15.565 13.4064 15.599C13.44 15.6383 13.44 15.7231 13.44 15.8927V23.24C13.44 23.5493 13.6907 23.8 14 23.8C14.3092 23.8 14.56 23.5493 14.56 23.24V15.8927C14.56 15.7231 14.56 15.6383 14.5935 15.599C14.6226 15.5649 14.6663 15.5469 14.7109 15.5504C14.7624 15.5544 14.8224 15.6144 14.9423 15.7344L20.1376 20.9296C20.3563 21.1483 20.7109 21.1483 20.9296 20.9297C21.1483 20.711 21.1483 20.3564 20.9296 20.1377L15.7343 14.9424C15.6144 14.8224 15.5544 14.7625 15.5503 14.711C15.5468 14.6663 15.5649 14.6226 15.599 14.5935C15.6383 14.56 15.7231 14.56 15.8927 14.56H23.24C23.5492 14.56 23.8 14.3093 23.8 14C23.8 13.6907 23.5492 13.44 23.24 13.44H15.8927C15.7231 13.44 15.6383 13.44 15.599 13.4065C15.5649 13.3774 15.5468 13.3337 15.5503 13.289C15.5544 13.2375 15.6144 13.1776 15.7343 13.0576L20.9296 7.86231C21.1483 7.64362 21.1483 7.28905 20.9296 7.07035C20.7109 6.85166 20.3563 6.85166 20.1376 7.07035L14.9423 12.2657C14.8224 12.3856 14.7624 12.4456 14.7109 12.4496C14.6663 12.4531 14.6226 12.4351 14.5935 12.401C14.56 12.3617 14.56 12.2769 14.56 12.1073V4.76C14.56 4.45072 14.3092 4.2 14 4.2Z" fill="var(--fill-0, white)"/>
</g>
</svg>
